<svg xmlns="http://www.w3.org/2000/svg" viewBox="0 0 256 256" role="img" aria-label="WhisperMe logo mark">
  <defs>
    <linearGradient id="wmWave" x1="28" y1="190" x2="217" y2="44" gradientUnits="userSpaceOnUse">
      <stop offset="0" stop-color="#74fff0"/>
      <stop offset="0.42" stop-color="#4f8dff"/>
      <stop offset="0.72" stop-color="#b552ff"/>
      <stop offset="1" stop-color="#ff8cff"/>
    </linearGradient>
    <radialGradient id="wmCore" cx="38%" cy="34%" r="72%">
      <stop offset="0" stop-color="#ffffff"/>
      <stop offset="0.56" stop-color="#eaffff"/>
      <stop offset="1" stop-color="#b8f7ff"/>
    </radialGradient>
    <filter id="wmGlow" x="-45%" y="-45%" width="190%" height="190%">
      <feGaussianBlur stdDeviation="4" result="blur"/>
      <feColorMatrix in="blur" type="matrix" values="0 0 0 0 0.32 0 0 0 0 0.72 0 0 0 0 1 0 0 0 0.78 0" result="blueGlow"/>
      <feGaussianBlur in="SourceGraphic" stdDeviation="0.8" result="soft"/>
      <feMerge>
        <feMergeNode in="blueGlow"/>
        <feMergeNode in="soft"/>
        <feMergeNode in="SourceGraphic"/>
      </feMerge>
    </filter>
    <filter id="wmCoreGlow" x="-80%" y="-80%" width="260%" height="260%">
      <feGaussianBlur stdDeviation="5" result="blur"/>
      <feMerge>
        <feMergeNode in="blur"/>
        <feMergeNode in="SourceGraphic"/>
      </feMerge>
    </filter>
  </defs>
  <rect width="256" height="256" rx="54" fill="#10111a"/>
  <g fill="none" stroke="url(#wmWave)" stroke-linecap="round" filter="url(#wmGlow)">
    <path d="M139 38C184 36 218 70 224 118" stroke-width="22"/>
    <path d="M132 60C166 61 191 88 194 126" stroke-width="19"/>
    <path d="M72 91C51 120 56 159 84 179C112 199 151 187 161 153C164 141 164 130 162 119" stroke-width="21"/>
    <path d="M91 84C71 106 69 137 83 158" stroke-width="18"/>
    <path d="M130 198C157 189 179 165 184 134" stroke-width="21"/>
  </g>
  <circle cx="126" cy="111" r="25" fill="url(#wmCore)" filter="url(#wmCoreGlow)"/>
</svg>
