<svg xmlns="http://www.w3.org/2000/svg" viewBox="0 0 1024 1024" role="img" aria-label="WhisperMe logo mark">
  <defs>
    <radialGradient id="wmBg" cx="66%" cy="36%" r="82%">
      <stop offset="0" stop-color="#20202a"/>
      <stop offset="0.48" stop-color="#12131b"/>
      <stop offset="1" stop-color="#050609"/>
    </radialGradient>
    <linearGradient id="wmStroke" x1="220" y1="610" x2="790" y2="285" gradientUnits="userSpaceOnUse">
      <stop offset="0" stop-color="#75fff2"/>
      <stop offset="0.32" stop-color="#38aaff"/>
      <stop offset="0.64" stop-color="#9355ff"/>
      <stop offset="1" stop-color="#ff89f4"/>
    </linearGradient>
    <radialGradient id="wmCore" cx="35%" cy="28%" r="76%">
      <stop offset="0" stop-color="#ffffff"/>
      <stop offset="0.58" stop-color="#e9ffff"/>
      <stop offset="1" stop-color="#b5fbff"/>
    </radialGradient>
    <filter id="wmGlow" x="-35%" y="-35%" width="170%" height="170%">
      <feGaussianBlur stdDeviation="10" result="blur"/>
      <feColorMatrix in="blur" type="matrix" values="0 0 0 0 0.32 0 0 0 0 0.74 0 0 0 0 1 0 0 0 0.9 0"/>
      <feMerge>
        <feMergeNode/>
        <feMergeNode in="SourceGraphic"/>
      </feMerge>
    </filter>
    <filter id="wmCoreGlow" x="-90%" y="-90%" width="280%" height="280%">
      <feGaussianBlur stdDeviation="14" result="blur"/>
      <feMerge>
        <feMergeNode in="blur"/>
        <feMergeNode in="SourceGraphic"/>
      </feMerge>
    </filter>
  </defs>
  <rect width="1024" height="1024" fill="url(#wmBg)"/>
  <g fill="none" stroke="url(#wmStroke)" stroke-linecap="round" filter="url(#wmGlow)">
    <path d="M518 184C654 166 779 262 812 405" stroke-width="62"/>
    <path d="M502 235C611 228 710 309 733 425" stroke-width="54"/>
    <path d="M255 413C210 516 249 643 353 686C477 737 601 650 604 520" stroke-width="60"/>
    <path d="M365 367C297 438 296 535 347 596" stroke-width="54"/>
    <path d="M496 689C585 651 640 566 629 471" stroke-width="60"/>
  </g>
  <circle cx="474" cy="448" r="61" fill="url(#wmCore)" filter="url(#wmCoreGlow)"/>
</svg>
